<svg width="240" height="240" viewBox="0 0 240 240" fill="none" xmlns="http://www.w3.org/2000/svg">
  <path d="M120 240C186.274 240 240 186.274 240 120C240 53.7258 186.274 0 120 0C53.7258 0 0 53.7258 0 120C0 186.274 53.7258 240 120 240Z" fill="#0098EA"/>
  <path d="M183.84 98.32L129.92 70.4L120 98.32L156.16 114.56L183.84 98.32Z" fill="white"/>
  <path d="M56.16 98.32L110.08 70.4L120 98.32L83.84 114.56L56.16 98.32Z" fill="white"/>
  <path d="M156.16 114.56L120 98.32L129.92 70.4L156.16 114.56Z" fill="#E6F6FF"/>
  <path d="M83.84 114.56L120 98.32L110.08 70.4L83.84 114.56Z" fill="#E6F6FF"/>
  <path d="M120 180.64L83.84 114.56L120 98.32V180.64Z" fill="white"/>
  <path d="M120 180.64L156.16 114.56L120 98.32V180.64Z" fill="#E6F6FF"/>
</svg> 